<svg height="512" viewBox="0 0 32 32" width="512" xmlns="http://www.w3.org/2000/svg"><g id="_x30_1"><path d="m12.7070313 8.2929688c-.390625-.390625-1.0234375-.390625-1.4140625 0l-3 3c-.390625.390625-.390625 1.0234375 0 1.4140625l3 3c.1953125.1953125.4511718.2929687.7070312.2929687s.5117188-.0976563.7070313-.2929688c.390625-.390625.390625-1.0234375 0-1.4140625l-2.2929688-2.2929687 2.2929688-2.2929688c.390625-.3906249.390625-1.0234374 0-1.4140624z"/><path d="m20.7070313 8.2929688c-.390625-.390625-1.0234375-.390625-1.4140625 0s-.390625 1.0234375 0 1.4140625l2.2929687 2.2929687-2.2929688 2.2929688c-.390625.390625-.390625 1.0234375 0 1.4140625.1953126.1953125.4511719.2929687.7070313.2929687s.5117188-.0976563.7070313-.2929688l3-3c.390625-.390625.390625-1.0234375 0-1.4140625z"/><path d="m17.3164063 8.0512695c-.5249023-.1772461-1.090332.1088867-1.2651367.6323242l-2 6c-.1748047.5239258.1083984 1.090332.6323242 1.2651367.1049804.0351563.211914.0517579.3164062.0517579.4189453 0 .809082-.2651367.9487305-.684082l2-6c.1748047-.5239258-.1083985-1.0903321-.6323242-1.2651368z"/><path d="m26 2h-20c-2.2055664 0-4 1.7944336-4 4v12c0 2.2055664 1.7944336 4 4 4h7v2h-1.3818359c-.7626953 0-1.4482422.4238281-1.7890625 1.1054688l-1.7236328 3.4472656c-.1547852.3100586-.1381836.6782227.0439453.9731445.1821289.2944336.5039062.4741211.8505859.4741211h14c.3466797 0 .668457-.1796875.8505859-.4741211.1821289-.2949219.1987305-.6630859.0439453-.9731445l-1.7236328-3.4472656c-.3408203-.6816407-1.0263671-1.1054688-1.7890625-1.1054688h-1.3818359v-2h7c2.2055664 0 4-1.7944336 4-4v-12c0-2.2055664-1.7944336-4-4-4zm-8 25c.5522461 0 1-.4477539 1-1h1.3818359l1 2h-10.7636718l1-2h1.3818359c0 .5522461.4477539 1 1 1s1-.4477539 1-1v-4h2v4c0 .5522461.4477539 1 1 1zm10-9c0 1.1030273-.8969727 2-2 2h-20c-1.1030273 0-2-.8969727-2-2v-12c0-1.1030273.8969727-2 2-2h20c1.1030273 0 2 .8969727 2 2z"/></g></svg>